# xmcd CD database file
#
# Track frame offsets:
#	150
#	19085
#	40035
#	58967
#
# Disc length: 1064 seconds
#
# Revision: 0
# Processed by: cddbd v1.5.1PL2 Copyright (c) Steve Scherf et al.
# Submitted via: CDex 1.51
#
DISCID=2d042604
DTITLE=橋本みゆき - screaming
DYEAR=2006
DGENRE=Anime
TTITLE0=screaming
TTITLE1=dust trail
TTITLE2=screaming (off vocal)
TTITLE3=dust trail (off vocal)
EXTD=YEAR: 2006
EXTT0=
EXTT1=
EXTT2=
EXTT3=
PLAYORDER=
